<svg width="235" height="235" xmlns="http://www.w3.org/2000/svg" xmlns:xlink="http://www.w3.org/1999/xlink" xml:space="preserve" overflow="hidden"><g transform="translate(-522 -242)"><g><g><g><g><path d="M640 267.375C588.812 267.375 547.375 308.812 547.375 360 547.375 411.188 588.812 452.625 640 452.625 691.188 452.625 732.625 411.188 732.625 360 732.625 308.812 691.188 267.375 640 267.375ZM581.5 345.375C581.5 342.694 583.694 340.5 586.375 340.5L615.625 340.5C618.306 340.5 620.5 342.694 620.5 345.375 620.5 348.056 618.306 350.25 615.625 350.25L586.375 350.25C583.694 350.25 581.5 348.056 581.5 345.375ZM688.263 399.487C677.05 414.112 659.744 423.375 640 423.375 620.256 423.375 602.95 414.112 591.737 399.487 591.25 398.756 590.763 397.781 590.763 396.562 590.763 393.881 592.956 391.688 595.638 391.688 597.344 391.688 598.806 392.419 599.537 393.638 608.8 405.825 623.425 413.381 640 413.381 656.575 413.381 670.956 405.825 680.463 393.638 681.438 392.419 682.9 391.688 684.362 391.688 687.044 391.688 689.237 393.881 689.237 396.562 689.237 397.781 688.75 398.756 688.263 399.487ZM679 360C670.956 360 664.375 353.419 664.375 345.375 664.375 337.331 670.956 330.75 679 330.75 687.044 330.75 693.625 337.331 693.625 345.375 693.625 353.419 687.044 360 679 360Z" fill="#95CF96" fill-rule="nonzero" fill-opacity="1"/></g></g></g></g></g></svg>