<svg width="235" height="235" xmlns="http://www.w3.org/2000/svg" xmlns:xlink="http://www.w3.org/1999/xlink" xml:space="preserve" overflow="hidden"><g transform="translate(-522 -242)"><g><g><g><g><path d="M640 267.375C588.812 267.375 547.375 308.812 547.375 360 547.375 411.188 588.812 452.625 640 452.625 691.188 452.625 732.625 411.188 732.625 360 732.625 308.812 691.188 267.375 640 267.375ZM581.5 318.562C581.5 315.881 583.694 313.688 586.375 313.688L615.625 313.688C618.306 313.688 620.5 315.881 620.5 318.562 620.5 321.244 618.306 323.438 615.625 323.438L586.375 323.438C583.694 323.438 581.5 321.244 581.5 318.562ZM586.375 345.375C586.375 337.331 592.956 330.75 601 330.75 609.044 330.75 615.625 337.331 615.625 345.375 615.625 353.419 609.044 360 601 360 592.956 360 586.375 353.419 586.375 345.375ZM666.812 406.312 613.188 406.312C610.506 406.312 608.312 404.119 608.312 401.438 608.312 398.756 610.506 396.562 613.188 396.562L666.812 396.562C669.494 396.562 671.688 398.756 671.688 401.438 671.688 404.119 669.494 406.312 666.812 406.312ZM679 360C670.956 360 664.375 353.419 664.375 345.375 664.375 337.331 670.956 330.75 679 330.75 687.044 330.75 693.625 337.331 693.625 345.375 693.625 353.419 687.044 360 679 360ZM693.625 323.438 664.375 323.438C661.694 323.438 659.5 321.244 659.5 318.562 659.5 315.881 661.694 313.688 664.375 313.688L693.625 313.688C696.306 313.688 698.5 315.881 698.5 318.562 698.5 321.244 696.306 323.438 693.625 323.438Z" fill="#D0BE71" fill-rule="nonzero" fill-opacity="1"/></g></g></g></g></g></svg>