<svg width="235" height="235" xmlns="http://www.w3.org/2000/svg" xmlns:xlink="http://www.w3.org/1999/xlink" xml:space="preserve" overflow="hidden"><g transform="translate(-522 -242)"><g><g><g><g><path d="M640 267.375C588.812 267.375 547.375 308.812 547.375 360 547.375 411.188 588.812 452.625 640 452.625 691.188 452.625 732.625 411.188 732.625 360 732.625 308.812 691.188 267.375 640 267.375ZM586.375 345.375C586.375 337.331 592.956 330.75 601 330.75 609.044 330.75 615.625 337.331 615.625 345.375 615.625 353.419 609.044 360 601 360 592.956 360 586.375 353.419 586.375 345.375ZM684.362 416.062C682.656 416.062 681.194 415.331 680.463 414.112 671.2 401.925 656.575 394.369 640 394.369 623.425 394.369 609.044 401.925 599.537 414.112 598.562 415.331 597.1 416.062 595.638 416.062 592.956 416.062 590.763 413.869 590.763 411.188 590.763 410.212 591.006 409.237 591.737 408.263 602.95 393.638 620.256 384.375 640 384.375 659.744 384.375 677.05 393.638 688.263 408.263 688.75 408.994 689.237 409.969 689.237 411.188 689.237 413.869 687.044 416.062 684.362 416.062ZM679 360C670.956 360 664.375 353.419 664.375 345.375 664.375 337.331 670.956 330.75 679 330.75 687.044 330.75 693.625 337.331 693.625 345.375 693.625 353.419 687.044 360 679 360Z" fill="#F3A3BB" fill-rule="nonzero" fill-opacity="1"/></g></g></g></g></g></svg>